<svg xmlns="http://www.w3.org/2000/svg" width="512" height="512" viewBox="0 0 64 64" xml:space="preserve">
    <path fill="#CCD1D9" d="M31.5 58h-12a1 1 0 1 1 0-2h12a1 1 0 1 1 0 2z"/>
    <path fill="#E6E9ED" d="M23.5 59a1 1 0 0 1-1-1v-4.082a1 1 0 1 1 2 0V58a1 1 0 0 1-1 1zM27.5 59a1 1 0 0 1-1-1v-4.082a1 1 0 1 1 2 0V58a1 1 0 0 1-1 1z"/>
    <circle fill="#F5F7FA" cx="25.5" cy="30" r="22"/>
    <path fill="#E6E9ED" d="M25.5 8c-.675 0-1.341.035-2 .095 11.212 1.011 20 10.431 20 21.905 0 11.476-8.788 20.895-20 21.905.659.06 1.325.095 2 .095 12.149 0 22-9.85 22-22 0-12.149-9.851-22-22-22z"/>
    <path fill="#E6E9ED" d="M25.5 8c-.675 0-1.341.035-2 .095 11.212 1.011 20 10.431 20 21.905 0 11.476-8.788 20.895-20 21.905.659.06 1.325.095 2 .095 12.149 0 22-9.85 22-22 0-12.149-9.851-22-22-22z"/>
    <path fill="#FFD2A6" d="M.5 30c0-13.81 11.189-25 25-25 13.81 0 25 11.19 25 25 0 13.141-10.131 23.9-23 24.91-.66.061-1.33.09-2 .09-.671 0-1.341-.029-2-.09C10.63 53.9.5 43.141.5 30zm3 0c0 12.15 9.85 22 22 22 12.149 0 22-9.85 22-22 0-12.149-9.851-22-22-22-12.15 0-22 9.851-22 22z"/>
    <path fill="#CCD1D9" d="M57.5 9c0-1.654-1.346-3-3-3s-3 1.346-3 3c0 .956.632 3.708 2 4.664V34a1 1 0 1 0 2 0V13.664c1.368-.956 2-3.708 2-4.664zm-3 2.915c-.429-.479-1-2.089-1-2.915a1 1 0 0 1 2 0c0 .826-.571 2.436-1 2.915z"/>
    <path fill="#ED5565" d="M32.207 27.293a.999.999 0 0 0-1.414 0l-.293.293-.293-.293a.999.999 0 1 0-1.414 1.414l.293.293-.293.293a.999.999 0 1 0 1.414 1.414l.293-.293.293.293a.997.997 0 0 0 1.414 0 .999.999 0 0 0 0-1.414L31.914 29l.293-.293a.999.999 0 0 0 0-1.414zM37.207 27.293a.999.999 0 0 0-1.414 0l-.293.293-.293-.293a.999.999 0 1 0-1.414 1.414l.293.293-.293.293a.999.999 0 1 0 1.414 1.414l.293-.293.293.293a.997.997 0 0 0 1.414 0 .999.999 0 0 0 0-1.414L36.914 29l.293-.293a.999.999 0 0 0 0-1.414zM42.207 27.293a.999.999 0 0 0-1.414 0l-.293.293-.293-.293a.999.999 0 1 0-1.414 1.414l.293.293-.293.293a.999.999 0 1 0 1.414 1.414l.293-.293.293.293a.997.997 0 0 0 1.414 0 .999.999 0 0 0 0-1.414L41.914 29l.293-.293a.999.999 0 0 0 0-1.414zM32.207 17.293a.999.999 0 0 0-1.414 0l-.293.293-.293-.293a.999.999 0 1 0-1.414 1.414l.293.293-.293.293a.999.999 0 1 0 1.414 1.414l.293-.293.293.293a.997.997 0 0 0 1.414 0 .999.999 0 0 0 0-1.414L31.914 19l.293-.293a.999.999 0 0 0 0-1.414zM37.207 17.293a.999.999 0 0 0-1.414 0l-.293.293-.293-.293a.999.999 0 1 0-1.414 1.414l.293.293-.293.293a.999.999 0 1 0 1.414 1.414l.293-.293.293.293a.997.997 0 0 0 1.414 0 .999.999 0 0 0 0-1.414L36.914 19l.293-.293a.999.999 0 0 0 0-1.414zM27.207 27.293a.999.999 0 0 0-1.414 0l-.293.293-.293-.293a.999.999 0 1 0-1.414 1.414l.293.293-.293.293a.999.999 0 1 0 1.414 1.414l.293-.293.293.293a.997.997 0 0 0 1.414 0 .999.999 0 0 0 0-1.414L26.914 29l.293-.293a.999.999 0 0 0 0-1.414zM32.207 32.293a.999.999 0 0 0-1.414 0l-.293.293-.293-.293a.999.999 0 1 0-1.414 1.414l.293.293-.293.293a.999.999 0 1 0 1.414 1.414l.293-.293.293.293a.997.997 0 0 0 1.414 0 .999.999 0 0 0 0-1.414L31.914 34l.293-.293a.999.999 0 0 0 0-1.414zM37.207 32.293a.999.999 0 0 0-1.414 0l-.293.293-.293-.293a.999.999 0 1 0-1.414 1.414l.293.293-.293.293a.999.999 0 1 0 1.414 1.414l.293-.293.293.293a.997.997 0 0 0 1.414 0 .999.999 0 0 0 0-1.414L36.914 34l.293-.293a.999.999 0 0 0 0-1.414zM27.207 32.293a.999.999 0 0 0-1.414 0l-.293.293-.293-.293a.999.999 0 1 0-1.414 1.414l.293.293-.293.293a.999.999 0 1 0 1.414 1.414l.293-.293.293.293a.997.997 0 0 0 1.414 0 .999.999 0 0 0 0-1.414L26.914 34l.293-.293a.999.999 0 0 0 0-1.414zM32.207 37.293a.999.999 0 0 0-1.414 0l-.293.293-.293-.293a.999.999 0 1 0-1.414 1.414l.293.293-.293.293a.999.999 0 1 0 1.414 1.414l.293-.293.293.293a.997.997 0 0 0 1.414 0 .999.999 0 0 0 0-1.414L31.914 39l.293-.293a.999.999 0 0 0 0-1.414zM27.207 37.293a.999.999 0 0 0-1.414 0l-.293.293-.293-.293a.999.999 0 1 0-1.414 1.414l.293.293-.293.293a.999.999 0 1 0 1.414 1.414l.293-.293.293.293a.997.997 0 0 0 1.414 0 .999.999 0 0 0 0-1.414L26.914 39l.293-.293a.999.999 0 0 0 0-1.414zM27.207 42.293a.999.999 0 0 0-1.414 0l-.293.293-.293-.293a.999.999 0 1 0-1.414 1.414l.293.293-.293.293a.999.999 0 1 0 1.414 1.414l.293-.293.293.293a.997.997 0 0 0 1.414 0 .999.999 0 0 0 0-1.414L26.914 44l.293-.293a.999.999 0 0 0 0-1.414zM22.207 27.293a.999.999 0 0 0-1.414 0l-.293.293-.293-.293a.999.999 0 1 0-1.414 1.414l.293.293-.293.293a.999.999 0 1 0 1.414 1.414l.293-.293.293.293a.997.997 0 0 0 1.414 0 .999.999 0 0 0 0-1.414L21.914 29l.293-.293a.999.999 0 0 0 0-1.414zM17.207 27.293a.999.999 0 0 0-1.414 0l-.293.293-.293-.293a.999.999 0 1 0-1.414 1.414l.293.293-.293.293a.999.999 0 1 0 1.414 1.414l.293-.293.293.293a.997.997 0 0 0 1.414 0 .999.999 0 0 0 0-1.414L16.914 29l.293-.293a.999.999 0 0 0 0-1.414zM12.207 27.293a.999.999 0 0 0-1.414 0l-.293.293-.293-.293a.999.999 0 1 0-1.414 1.414l.293.293-.293.293a.999.999 0 1 0 1.414 1.414l.293-.293.293.293a.997.997 0 0 0 1.414 0 .999.999 0 0 0 0-1.414L11.914 29l.293-.293a.999.999 0 0 0 0-1.414zM32.207 22.293a.999.999 0 0 0-1.414 0l-.293.293-.293-.293a.999.999 0 1 0-1.414 1.414l.293.293-.293.293a.999.999 0 1 0 1.414 1.414l.293-.293.293.293a.997.997 0 0 0 1.414 0 .999.999 0 0 0 0-1.414L31.914 24l.293-.293a.999.999 0 0 0 0-1.414zM37.207 22.293a.999.999 0 0 0-1.414 0l-.293.293-.293-.293a.999.999 0 1 0-1.414 1.414l.293.293-.293.293a.999.999 0 1 0 1.414 1.414l.293-.293.293.293a.997.997 0 0 0 1.414 0 .999.999 0 0 0 0-1.414L36.914 24l.293-.293a.999.999 0 0 0 0-1.414zM41.914 24l.293-.293a.999.999 0 1 0-1.414-1.414l-.293.293-.293-.293a.999.999 0 1 0-1.414 1.414l.293.293-.293.293a.999.999 0 1 0 1.414 1.414l.293-.293.293.293a.997.997 0 0 0 1.414 0 .999.999 0 0 0 0-1.414L41.914 24z"/>
    <path fill="#ED5565" d="m41.914 24 .293-.293a.999.999 0 1 0-1.414-1.414l-.293.293-.293-.293a.999.999 0 1 0-1.414 1.414l.293.293-.293.293a.999.999 0 1 0 1.414 1.414l.293-.293.293.293a.997.997 0 0 0 1.414 0 .999.999 0 0 0 0-1.414L41.914 24zM27.207 22.293a.999.999 0 0 0-1.414 0l-.293.293-.293-.293a.999.999 0 1 0-1.414 1.414l.293.293-.293.293a.999.999 0 1 0 1.414 1.414l.293-.293.293.293a.997.997 0 0 0 1.414 0 .999.999 0 0 0 0-1.414L26.914 24l.293-.293a.999.999 0 0 0 0-1.414zM22.207 22.293a.999.999 0 0 0-1.414 0l-.293.293-.293-.293a.999.999 0 1 0-1.414 1.414l.293.293-.293.293a.999.999 0 1 0 1.414 1.414l.293-.293.293.293a.997.997 0 0 0 1.414 0 .999.999 0 0 0 0-1.414L21.914 24l.293-.293a.999.999 0 0 0 0-1.414zM17.207 22.293a.999.999 0 0 0-1.414 0l-.293.293-.293-.293a.999.999 0 1 0-1.414 1.414l.293.293-.293.293a.999.999 0 1 0 1.414 1.414l.293-.293.293.293a.997.997 0 0 0 1.414 0 .999.999 0 0 0 0-1.414L16.914 24l.293-.293a.999.999 0 0 0 0-1.414zM12.207 22.293a.999.999 0 0 0-1.414 0l-.293.293-.293-.293a.999.999 0 1 0-1.414 1.414l.293.293-.293.293a.999.999 0 1 0 1.414 1.414l.293-.293.293.293a.997.997 0 0 0 1.414 0 .999.999 0 0 0 0-1.414L11.914 24l.293-.293a.999.999 0 0 0 0-1.414zM22.207 17.293a.999.999 0 0 0-1.414 0l-.293.293-.293-.293a.999.999 0 1 0-1.414 1.414l.293.293-.293.293a.999.999 0 1 0 1.414 1.414l.293-.293.293.293a.997.997 0 0 0 1.414 0 .999.999 0 0 0 0-1.414L21.914 19l.293-.293a.999.999 0 0 0 0-1.414zM17.207 17.293a.999.999 0 0 0-1.414 0l-.293.293-.293-.293a.999.999 0 1 0-1.414 1.414l.293.293-.293.293a.999.999 0 1 0 1.414 1.414l.293-.293.293.293a.997.997 0 0 0 1.414 0 .999.999 0 0 0 0-1.414L16.914 19l.293-.293a.999.999 0 0 0 0-1.414zM22.207 32.293a.999.999 0 0 0-1.414 0l-.293.293-.293-.293a.999.999 0 1 0-1.414 1.414l.293.293-.293.293a.999.999 0 1 0 1.414 1.414l.293-.293.293.293a.997.997 0 0 0 1.414 0 .999.999 0 0 0 0-1.414L21.914 34l.293-.293a.999.999 0 0 0 0-1.414zM17.207 32.293a.999.999 0 0 0-1.414 0l-.293.293-.293-.293a.999.999 0 1 0-1.414 1.414l.293.293-.293.293a.999.999 0 1 0 1.414 1.414l.293-.293.293.293a.997.997 0 0 0 1.414 0 .999.999 0 0 0 0-1.414L16.914 34l.293-.293a.999.999 0 0 0 0-1.414zM22.207 37.293a.999.999 0 0 0-1.414 0l-.293.293-.293-.293a.999.999 0 1 0-1.414 1.414l.293.293-.293.293a.999.999 0 1 0 1.414 1.414l.293-.293.293.293a.997.997 0 0 0 1.414 0 .999.999 0 0 0 0-1.414L21.914 39l.293-.293a.999.999 0 0 0 0-1.414z"/>
    <g fill="#ED5565">
        <path d="M55.5 9h-7a1 1 0 1 0 0 2h6.505c.271-.661.495-1.483.495-2zM62.5 17h-2a1 1 0 0 1 0-2c1.654 0 3-1.346 3-3s-1.346-3-3-3h-3c0 .42-.13 1.19-.383 2H60.5a1 1 0 0 1 0 2c-1.654 0-3 1.346-3 3s1.346 3 3 3h2a1 1 0 1 0 0-2z"/>
    </g>
</svg>
